<svg width="54" height="58" viewBox="0 0 54 58" fill="none" xmlns="http://www.w3.org/2000/svg">
<path d="M0 24.2342C0 21.3061 0.951262 18.6896 2.82208 16.3845C4.69289 14.0795 7.07105 12.6155 9.95654 11.9925C10.7493 8.50376 12.5567 5.60688 15.4105 3.36413C18.2642 1.12138 21.4985 0 25.1767 0C28.7281 0 31.9307 1.09023 34.7528 3.27068C37.5749 5.45113 39.3823 8.25456 40.2384 11.6498H41.0945C44.6459 11.6498 47.69 12.8647 50.2267 15.3255C52.7316 17.7551 54 20.7454 54 24.203C54 26.072 53.6195 27.8475 52.8268 29.4984C52.0341 31.1493 50.956 32.5822 49.5608 33.7658V33.8593C49.5608 35.6971 48.9583 37.348 47.7851 38.812C46.6119 40.2761 45.1215 41.1794 43.3459 41.5843C42.9019 43.5156 41.919 45.1665 40.4604 46.5059C39.0018 47.8453 37.2578 48.6864 35.2918 48.9979C36.2114 50.0569 36.6553 51.2406 36.6553 52.5177C36.6553 54.0129 36.1163 55.29 35.0382 56.3802C33.9601 57.4393 32.66 58 31.138 58C29.616 58 28.3159 57.4705 27.2378 56.3802C26.1597 55.3212 25.6207 54.0129 25.6207 52.5177C25.6207 51.9259 25.7158 51.3341 25.9378 50.7422H25.6207C23.7816 50.7422 22.1961 50.0881 20.8644 48.7798C19.5326 47.4715 18.8667 45.9141 18.8667 44.1074C18.8667 42.8614 19.1838 41.7401 19.818 40.7744C18.1691 39.8711 16.9959 38.594 16.2666 36.8808H12.2079V36.8496C8.81503 36.6316 5.92954 35.3233 3.55138 32.8937C1.17322 30.464 0 27.5983 0 24.2342ZM4.43922 23.4554C4.43922 25.9474 5.32707 28.0655 7.10276 29.8099C8.87845 31.5542 11.0346 32.4264 13.5396 32.4264C15.0934 32.4264 16.552 32.0838 17.8837 31.3674C18.2642 33.6724 19.374 35.6037 21.1814 37.1611C22.9888 38.7186 25.145 39.4662 27.5866 39.4662C30.3453 39.4662 32.6917 38.5005 34.626 36.6004C35.926 38.0956 37.5432 38.812 39.5091 38.812C41.3165 38.812 42.8385 38.189 44.1386 36.9431C45.4069 35.6971 46.0411 34.1708 46.0411 32.3953C47.3095 31.5542 48.3241 30.4952 49.0534 29.1558C49.7827 27.8475 50.1632 26.4146 50.1632 24.8883C50.1632 22.4275 49.2754 20.3093 47.468 18.5961C45.6606 16.8829 43.5044 16.0107 40.9677 16.0107C39.192 16.0107 37.5749 16.478 36.1163 17.3813C36.3065 16.6337 36.3699 15.7927 36.3699 14.9205C36.3699 11.9302 35.2918 9.37594 33.1039 7.25779C30.916 5.13964 28.2842 4.11171 25.2085 4.11171C22.2278 4.11171 19.6594 5.13964 17.5032 7.13319C15.347 9.12675 14.2055 11.6187 14.1104 14.5156C14.047 14.5156 13.9518 14.5156 13.8567 14.5156C13.7299 14.5156 13.6348 14.5156 13.5713 14.5156C11.0664 14.5156 8.94187 15.3878 7.13447 17.1321C5.32707 18.8765 4.43922 21.0258 4.43922 23.4554Z" fill="#0271BC"/>
</svg>
