<svg width="48" height="58" viewBox="0 0 48 58" fill="none" xmlns="http://www.w3.org/2000/svg">
<path d="M24 7.549L10.8 20.7624C8.18962 23.3757 6.41198 26.7052 5.69188 30.3298C4.97177 33.9544 5.34155 37.7113 6.75444 41.1256C8.16733 44.5398 10.5599 47.458 13.6296 49.5111C16.6992 51.5643 20.3082 52.6601 24 52.6601C27.6918 52.6601 31.3008 51.5643 34.3704 49.5111C37.4401 47.458 39.8327 44.5398 41.2456 41.1256C42.6585 37.7113 43.0282 33.9544 42.3081 30.3298C41.588 26.7052 39.8104 23.3757 37.2 20.7624L24 7.549ZM24 0L40.9707 16.9879C44.3271 20.3478 46.6128 24.6285 47.5389 29.2888C48.4649 33.9491 47.9896 38.7795 46.1731 43.1694C44.3566 47.5593 41.2804 51.3114 37.3336 53.9512C33.3869 56.591 28.7467 58 24 58C19.2533 58 14.6131 56.591 10.6664 53.9512C6.71958 51.3114 3.64344 47.5593 1.82693 43.1694C0.0104183 38.7795 -0.464879 33.9491 0.461142 29.2888C1.38716 24.6285 3.67291 20.3478 7.02934 16.9879L24 0ZM26.6667 28.6371H33.3333L21.3333 45.988V33.9758H14.6667L26.6667 16.6249V28.6371Z" fill="#0271BC"/>
</svg>
