<svg width="43" height="58" viewBox="0 0 43 58" fill="none" xmlns="http://www.w3.org/2000/svg">
<path d="M33.3939 10.856V5.11957C34.4172 4.75724 35.1515 3.78381 35.1515 2.63636C35.1515 1.18047 33.971 0 32.5152 0H30.7576H11.4242H9.66667C8.21078 0 7.0303 1.18047 7.0303 2.63636C7.0303 3.78362 7.76462 4.75724 8.78788 5.11957V10.856C3.7558 12.0496 0 16.5778 0 21.9697V43.0606C0 47.9982 3.14896 52.2129 7.54367 53.8052C7.22248 54.2421 7.0303 54.7798 7.0303 55.3636C7.0303 56.8195 8.21078 58 9.66667 58H32.5152C33.971 58 35.1515 56.8195 35.1515 55.3636C35.1515 54.7798 34.9593 54.2421 34.6381 53.8052C39.0331 52.2129 42.1818 47.9982 42.1818 43.0606V21.9697C42.1818 16.5778 38.426 12.0496 33.3939 10.856ZM14.0606 5.27273H28.1212V10.5455H23.5739C23.2116 9.5222 22.2382 8.78788 21.0907 8.78788C19.9433 8.78788 18.97 9.5222 18.6075 10.5455H14.0606V5.27273ZM36.9091 43.0606C36.9091 46.4525 34.1495 49.2121 30.7576 49.2121H11.4242C8.03231 49.2121 5.27273 46.4525 5.27273 43.0606V21.9697C5.27273 18.5787 8.03115 15.8193 11.4219 15.8184C11.4227 15.8184 11.4235 15.8184 11.4242 15.8184H30.7576C30.7583 15.8184 30.7591 15.8184 30.7599 15.8184C34.1509 15.8193 36.9091 18.5787 36.9091 21.9697V43.0606Z" fill="#0271BC"/>
</svg>
