<svg width="48" height="64" viewBox="0 0 48 64" fill="none" xmlns="http://www.w3.org/2000/svg">
<path d="M34.4858 26.3874C34.4858 27.1604 33.8748 27.7759 33.1076 27.7759H9.70544C8.93812 27.7759 8.32719 27.1603 8.32719 26.3874C8.32719 25.6144 8.9382 24.9989 9.70544 24.9989H33.0294C33.7966 24.9201 34.4858 25.5357 34.4858 26.3874ZM7.86534 17.7342V11.4716C7.86534 10.2333 8.85997 9.15257 10.1672 9.15257H32.3402C33.5693 9.15257 34.6421 10.1546 34.6421 11.4716V17.7342C34.6421 18.9724 33.6475 20.0532 32.3402 20.0532H10.1672C8.85997 20.0532 7.86534 19.044 7.86534 17.7342ZM10.7001 17.1903H31.8003V12.0084H10.7001V17.1903ZM43.9276 49.4985L43.8494 61.2508C43.8494 63.6485 42.2367 63.7988 41.9313 63.7988C41.4695 63.7988 40.9366 63.6413 40.4749 63.2549L36.6384 60.0054L32.9583 63.0974C32.5747 63.4051 31.9637 63.8704 31.2675 63.8704C30.422 63.8704 29.5766 63.2549 29.4274 62.0167C29.4274 61.938 29.4274 61.938 29.4274 61.8592V59.5474H3.79453C1.72005 59.5474 0.0362549 57.844 0.0362549 55.7612V4.35717C0.0362549 2.26717 1.72711 0.570923 3.79453 0.570923H39.4732C41.5476 0.570923 43.2314 2.27437 43.2314 4.35717V33.3444C44.3824 34.1962 45.3059 35.3556 45.9951 36.6654C48.2968 40.9955 47.3022 46.3349 43.9276 49.4985ZM43.4658 38.0611C42.8548 36.9016 41.9313 35.8995 40.8585 35.1981C40.6312 35.0406 40.3967 34.9691 40.2475 34.8116C40.1693 34.8116 40.0912 34.7329 40.0202 34.7329C39.7147 34.5754 39.4802 34.5039 39.1747 34.3464C39.1747 34.3464 39.1747 34.3464 39.0965 34.3464C37.4838 33.8025 35.6438 33.8025 34.031 34.4252H33.9529C33.6474 34.5826 33.3419 34.6542 33.0293 34.8904C30.422 36.2789 28.9656 38.9844 28.9656 41.7686C28.9656 43.0068 29.271 44.245 29.8891 45.4761C30.0454 45.7838 30.1946 46.02 30.429 46.3279C30.5072 46.4066 30.5072 46.4853 30.5853 46.5569C30.7416 46.7859 30.8908 46.9433 31.0471 47.1008C31.1253 47.1795 31.1253 47.1795 31.2034 47.2583C31.4307 47.4873 31.6652 47.7235 31.8926 47.8738L31.9707 47.9526C32.1981 48.11 32.3544 48.2603 32.5818 48.4178L32.6599 48.4965C32.7381 48.4965 32.7381 48.5752 32.8162 48.5752C32.8944 48.5752 32.9725 48.654 33.0435 48.654C33.1217 48.7327 33.2708 48.7327 33.349 48.8114C35.1109 49.6632 37.1073 49.8135 39.0254 49.2766C39.1036 49.2766 39.2528 49.1979 39.3309 49.1979C39.4091 49.1979 39.4091 49.1979 39.4872 49.1192C39.5654 49.1192 39.6435 49.0404 39.7145 49.0404C39.9418 48.9617 40.1763 48.8114 40.4037 48.7327C40.631 48.5752 40.8655 48.5037 41.0147 48.3462C41.242 48.1888 41.3983 48.0385 41.6257 47.881C44.3894 45.4832 45.3058 41.382 43.4658 38.0611ZM29.4274 56.5341V51.0444H9.70544C8.93812 51.0444 8.32719 50.4289 8.32719 49.6559C8.32719 48.8829 8.9382 48.2674 9.70544 48.2674H28.1983C28.1202 48.1099 28.042 48.0384 27.8929 47.8809C27.8147 47.8022 27.7366 47.7235 27.7366 47.6519C27.5803 47.4945 27.5093 47.2655 27.3529 47.0364L27.2748 46.9576C27.1185 46.6499 26.9693 46.3421 26.813 45.9556C26.5076 45.1038 26.2731 44.2522 26.1239 43.4076H9.70544C8.93812 43.4076 8.32719 42.792 8.32719 42.0191C8.32719 41.2461 8.9382 40.6306 9.70544 40.6306H26.1239C26.202 40.0866 26.2802 39.5498 26.4293 39.0059C26.8129 37.8464 27.3529 36.7656 28.042 35.8352H9.70544C8.93812 35.8352 8.32719 35.2196 8.32719 34.4467C8.32719 33.6737 8.9382 33.0582 9.70544 33.0582H31.1111C31.2675 32.9794 31.4166 32.9007 31.5729 32.7504C31.8784 32.593 32.1839 32.4427 32.5676 32.2852H32.6457C33.8748 31.7413 35.253 31.5122 36.6384 31.5122C37.9457 31.5122 39.1676 31.7412 40.3186 32.2065V4.35717C40.3186 3.81323 39.9349 3.42675 39.395 3.42675H3.79453C3.25461 3.42675 2.87099 3.81323 2.87099 4.35717V55.5321C2.87099 56.076 3.25461 56.4625 3.79453 56.4625H29.4203V56.534H29.4274V56.5341ZM41.0858 51.5096C41.0076 51.5096 41.0076 51.5096 40.9295 51.5884C40.9295 51.5884 40.8513 51.5884 40.8513 51.6671H40.7732C40.6169 51.7458 40.4677 51.7458 40.3114 51.8246C40.2333 51.8246 40.2333 51.8246 40.1551 51.9033C40.077 51.9033 39.9988 51.982 39.9278 51.982C39.9278 51.982 39.9278 51.982 39.8496 51.982C39.8496 51.982 39.8496 51.982 39.7715 51.982C39.6933 51.982 39.6933 51.982 39.6152 52.0608H39.537C39.4589 52.0608 39.3807 52.0608 39.3097 52.1395C39.2316 52.1395 39.0824 52.2182 38.9261 52.2182C38.848 52.2182 38.6988 52.297 38.6206 52.297C38.4643 52.297 38.3152 52.3757 38.0807 52.3757C38.0026 52.3757 37.8534 52.3757 37.7752 52.4544H37.6971C37.6189 52.4544 37.6189 52.4544 37.5408 52.4544C37.4626 52.4544 37.4626 52.4544 37.3845 52.4544C37.1572 52.4544 36.9227 52.4544 36.7735 52.4544C36.6953 52.4544 36.6953 52.4544 36.6172 52.4544C36.539 52.4544 36.539 52.4544 36.4609 52.4544C36.2336 52.4544 35.9209 52.4544 35.6935 52.3757H35.6154H35.5372C34.5426 52.297 33.5409 51.9892 32.6954 51.6027C32.6173 51.5239 32.4681 51.524 32.39 51.4452L32.3118 59.8694L35.7646 56.9349C35.9919 56.7059 36.3756 56.6272 36.6882 56.6272C37.0008 56.6272 37.3773 56.7059 37.6118 56.9349L41.0645 59.8694L41.0858 51.5096Z" fill="#0271BC"/>
</svg>
