<svg width="51" height="62" viewBox="0 0 51 62" fill="none" xmlns="http://www.w3.org/2000/svg">
<path d="M49.5626 9.08453C48.845 8.42307 47.9027 8.0549 46.9292 8.0549C46.8419 8.0549 46.7545 8.06114 46.6609 8.06114C46.6047 8.06738 45.987 8.10482 45.0197 8.10482C43.416 8.10482 40.2772 7.99874 37.3069 7.26864C33.4692 6.33261 29.0449 1.99569 27.7532 1.14079C27.1104 0.710213 26.3616 0.498047 25.6128 0.498047C24.8702 0.498047 24.0839 0.660291 23.4724 1.14079C22.3804 2.00193 18.6799 6.17037 14.1496 7.27488C11.1792 7.99874 7.98427 8.11106 6.38055 8.11106C5.41332 8.11106 4.7893 8.07362 4.73314 8.06738C4.64578 8.06114 4.56466 8.06114 4.47729 8.06114C3.50383 8.06114 2.55532 8.42931 1.8377 9.09701C1.05768 9.81463 0.614624 10.8255 0.614624 11.8864V21.4588C0.614624 56.8531 23.9404 61.4147 24.9326 61.5894C25.1572 61.6268 25.3881 61.6518 25.6128 61.6518C25.8437 61.6518 26.0683 61.6331 26.293 61.5894C27.2851 61.4147 50.7857 56.8531 50.7857 21.4588V11.8864C50.7857 10.8255 50.3426 9.80839 49.5626 9.08453ZM46.9292 21.4588C46.9292 54.0575 25.6128 57.8203 25.6128 57.8203C25.6128 57.8203 4.47105 54.0575 4.47105 21.4588V11.8864C4.47105 11.8864 5.20115 11.9363 6.38055 11.9363C8.40237 11.9363 11.8033 11.7865 15.0669 10.994C20.4085 9.69607 25.6128 4.32952 25.6128 4.32952C25.6128 4.32952 31.0542 9.69607 36.3896 10.994C39.6532 11.7928 42.9979 11.9363 45.026 11.9363C46.2054 11.9363 46.9355 11.8864 46.9355 11.8864L46.9292 21.4588Z" fill="#0271BC"/>
<path d="M40.2022 24.4229C41.1008 23.5243 41.1008 22.0454 40.2022 21.1468C39.3036 20.2483 37.8247 20.2483 36.9261 21.1468L21.9809 36.0921L14.474 28.5789C13.5754 27.6803 12.0965 27.6803 11.1979 28.5789C10.2993 29.4775 10.2993 30.9564 11.1979 31.855L20.346 41.0031C21.2446 41.9017 22.7235 41.9017 23.6221 41.0031L40.2022 24.4229Z" fill="#0271BC"/>
</svg>
