<svg width="62" height="62" viewBox="0 0 62 62" fill="none" xmlns="http://www.w3.org/2000/svg">
<path fill-rule="evenodd" clip-rule="evenodd" d="M61.3209 16.5874C61.3209 10.9584 56.7576 6.39514 51.1286 6.39514C40.1325 6.39514 21.3554 6.39514 10.3594 6.39514C4.73035 6.39514 0.167114 10.9584 0.167114 16.5874C0.167114 26.2818 0.167114 41.8381 0.167114 51.5324C0.167114 57.1615 4.73035 61.7247 10.3594 61.7247C21.3554 61.7247 40.1325 61.7247 51.1286 61.7247C56.7576 61.7247 61.3209 57.1615 61.3209 51.5324V16.5874ZM58.4088 16.5874C58.4088 12.5658 55.1502 9.30722 51.1286 9.30722C40.1325 9.30722 21.3554 9.30722 10.3594 9.30722C6.33782 9.30722 3.0792 12.5658 3.0792 16.5874C3.0792 26.2818 3.0792 41.8381 3.0792 51.5324C3.0792 55.554 6.33782 58.8126 10.3594 58.8126C21.3554 58.8126 40.1325 58.8126 51.1286 58.8126C55.1502 58.8126 58.4088 55.554 58.4088 51.5324V16.5874Z" fill="#0271BC"/>
<path fill-rule="evenodd" clip-rule="evenodd" d="M14.7274 2.02696V13.6753C14.7274 14.479 15.3797 15.1313 16.1835 15.1313C16.9872 15.1313 17.6395 14.479 17.6395 13.6753V2.02696C17.6395 1.22323 16.9872 0.570923 16.1835 0.570923C15.3797 0.570923 14.7274 1.22323 14.7274 2.02696Z" fill="#0271BC"/>
<path fill-rule="evenodd" clip-rule="evenodd" d="M1.62317 26.7796H59.8648V23.8676H1.62317V26.7796Z" fill="#0271BC"/>
<path fill-rule="evenodd" clip-rule="evenodd" d="M43.8485 2.02696V13.6753C43.8485 14.479 44.5008 15.1313 45.3046 15.1313C46.1083 15.1313 46.7606 14.479 46.7606 13.6753V2.02696C46.7606 1.22323 46.1083 0.570923 45.3046 0.570923C44.5008 0.570923 43.8485 1.22323 43.8485 2.02696Z" fill="#0271BC"/>
<path fill-rule="evenodd" clip-rule="evenodd" d="M14.7274 32.6039C13.1199 32.6039 11.8153 33.9085 11.8153 35.516C11.8153 37.1234 13.1199 38.428 14.7274 38.428C16.3349 38.428 17.6395 37.1234 17.6395 35.516C17.6395 33.9085 16.3349 32.6039 14.7274 32.6039Z" fill="#0271BC"/>
<path fill-rule="evenodd" clip-rule="evenodd" d="M30.7439 32.6039C29.1364 32.6039 27.8318 33.9085 27.8318 35.516C27.8318 37.1234 29.1364 38.428 30.7439 38.428C32.3513 38.428 33.656 37.1234 33.656 35.516C33.656 33.9085 32.3513 32.6039 30.7439 32.6039Z" fill="#0271BC"/>
<path fill-rule="evenodd" clip-rule="evenodd" d="M46.7606 32.6039C45.1531 32.6039 43.8485 33.9085 43.8485 35.516C43.8485 37.1234 45.1531 38.428 46.7606 38.428C48.3681 38.428 49.6727 37.1234 49.6727 35.516C49.6727 33.9085 48.3681 32.6039 46.7606 32.6039Z" fill="#0271BC"/>
<path fill-rule="evenodd" clip-rule="evenodd" d="M46.7606 46.9371C45.1531 46.9371 43.8485 48.2417 43.8485 49.8492C43.8485 51.4567 45.1531 52.7613 46.7606 52.7613C48.3681 52.7613 49.6727 51.4567 49.6727 49.8492C49.6727 48.2417 48.3681 46.9371 46.7606 46.9371Z" fill="#0271BC"/>
<path fill-rule="evenodd" clip-rule="evenodd" d="M30.7439 46.9371C29.1364 46.9371 27.8318 48.2417 27.8318 49.8492C27.8318 51.4567 29.1364 52.7613 30.7439 52.7613C32.3513 52.7613 33.656 51.4567 33.656 49.8492C33.656 48.2417 32.3513 46.9371 30.7439 46.9371Z" fill="#0271BC"/>
<path fill-rule="evenodd" clip-rule="evenodd" d="M14.7274 46.9371C13.1199 46.9371 11.8153 48.2417 11.8153 49.8492C11.8153 51.4567 13.1199 52.7613 14.7274 52.7613C16.3349 52.7613 17.6395 51.4567 17.6395 49.8492C17.6395 48.2417 16.3349 46.9371 14.7274 46.9371Z" fill="#0271BC"/>
</svg>
